<?xml version="1.0" encoding="UTF-8"?>
<svg xmlns="http://www.w3.org/2000/svg" width="175" height="36" fill="none">
  <path d="M29.844 0H2.104A2.114 2.114 0 0 0 0 2.129v28.066c0 1.177.94 2.129 2.104 2.129h27.74a2.114 2.114 0 0 0 2.104-2.129V2.129C31.948.952 31.01 0 29.844 0Z" fill="#D05011"></path>
  <path d="M17.486 4.923H13.94v3.594h3.545V4.923ZM10.61 8.567V7.252h1.303V8.53h2.003v2.066h-2.053V8.567H10.61Zm8.642.99h-2.054v2.066h2.054V9.557Zm-7.69 1.765h-1.328v1.34h1.328v-1.34Zm4.245.677h-2.655v2.68h2.655v-2.68Zm6 2.216-2.643-2.592V27.34l2.642-2.592V14.215Z" fill="#fff"></path>
  <path d="M40.486 28.285V7.683h1.59v20.602h-1.59Zm19.075-9.05v9.05h-1.589v-8.8a4.61 4.61 0 0 0-.633-2.384 4.744 4.744 0 0 0-1.707-1.707 4.61 4.61 0 0 0-2.384-.633c-.863 0-1.653.21-2.37.633-.715.422-1.29.99-1.72 1.707a4.61 4.61 0 0 0-.634 2.384v8.8h-1.59V13.569h1.59v2.251a5.808 5.808 0 0 1 2.105-1.942 5.822 5.822 0 0 1 2.855-.721c1.128 0 2.148.275 3.06.824a6.025 6.025 0 0 1 2.193 2.193c.55.922.824 1.942.824 3.06Zm8.441 9.33a7.488 7.488 0 0 1-2.398-.427 7.02 7.02 0 0 1-2.031-1.133c-.579-.471-.981-1.006-1.207-1.604l1.398-.604c.167.442.486.84.957 1.192.48.354 1.02.633 1.618.84a5.783 5.783 0 0 0 1.781.293 5.06 5.06 0 0 0 1.854-.338c.58-.226 1.05-.544 1.413-.957.363-.412.545-.897.545-1.457 0-.588-.192-1.05-.574-1.383-.383-.343-.874-.618-1.472-.824a30.595 30.595 0 0 0-1.825-.603 28.96 28.96 0 0 1-2.81-.957c-.785-.333-1.394-.755-1.825-1.265-.432-.51-.648-1.183-.648-2.016 0-.864.25-1.614.75-2.252.501-.638 1.158-1.128 1.973-1.472a6.51 6.51 0 0 1 2.62-.53c1.206 0 2.3.266 3.28.795.992.53 1.688 1.227 2.09 2.09l-1.295.765a2.927 2.927 0 0 0-.927-1.162 4.801 4.801 0 0 0-1.442-.75 5.544 5.544 0 0 0-1.633-.28 5.204 5.204 0 0 0-1.928.323c-.589.216-1.065.535-1.428.957-.363.412-.544.912-.544 1.5 0 .59.167 1.04.5 1.355.334.314.8.569 1.398.765.599.186 1.29.407 2.075.662.913.285 1.761.604 2.546.957.795.343 1.433.775 1.913 1.295.49.52.731 1.192.721 2.016 0 .863-.26 1.614-.78 2.251-.51.638-1.182 1.129-2.016 1.472a6.462 6.462 0 0 1-2.649.486Zm21.493-9.33v9.05h-1.59v-8.8c0-.873-.21-1.668-.632-2.384a4.745 4.745 0 0 0-1.707-1.707 4.608 4.608 0 0 0-2.385-.633c-.863 0-1.653.21-2.369.633-.716.422-1.29.99-1.722 1.707a4.613 4.613 0 0 0-.633 2.384v8.8H76.87V6.211h1.588v9.61a5.813 5.813 0 0 1 2.105-1.943 5.821 5.821 0 0 1 2.855-.721c1.128 0 2.148.275 3.061.824a6.022 6.022 0 0 1 2.192 2.193c.55.922.825 1.942.825 3.06Zm15.953-5.666h1.589v14.716h-1.589l-.044-3.017a6.247 6.247 0 0 1-2.149 2.473c-.922.618-2.031.927-3.326.927a7.6 7.6 0 0 1-3.016-.604 8.22 8.22 0 0 1-2.473-1.677 7.88 7.88 0 0 1-1.677-2.473 7.63 7.63 0 0 1-.604-3.031c0-1.07.196-2.07.59-3.002a7.816 7.816 0 0 1 1.662-2.458 7.503 7.503 0 0 1 2.458-1.663 7.457 7.457 0 0 1 2.987-.603c1.305 0 2.432.319 3.385.957a6.583 6.583 0 0 1 2.251 2.472l-.044-3.017Zm-5.533 13.539c1.127 0 2.094-.275 2.899-.824.814-.56 1.437-1.31 1.869-2.252.431-.942.647-1.977.647-3.105 0-1.158-.22-2.203-.662-3.134-.431-.942-1.055-1.688-1.869-2.237-.805-.56-1.766-.84-2.884-.84-1.139 0-2.173.28-3.106.84a6.312 6.312 0 0 0-2.207 2.251c-.55.942-.824 1.982-.824 3.12 0 1.158.28 2.203.839 3.134a6.418 6.418 0 0 0 2.252 2.223c.931.549 1.947.824 3.046.824Z" fill="#D05011"></path>
  <path d="M111.082 28.285V6.211h1.589v22.074h-1.589Zm15.821-14.716h1.663l-8.035 22.074h-1.693l2.679-7.358-5.284-14.716h1.737l4.341 12.523 4.592-12.523Zm12.777 1.59h-3.723l-.016 13.126h-1.589l.015-13.127h-2.811V13.57h2.811l-.015-4.62h1.589l.016 4.62h3.723v1.59Zm3.425-1.59h1.59v14.716h-1.59V13.569Zm.81-2.781c-.275 0-.51-.089-.707-.265a.94.94 0 0 1-.279-.692c0-.275.093-.5.279-.677a.991.991 0 0 1 .707-.28c.264 0 .49.094.677.28a.87.87 0 0 1 .294.677.941.941 0 0 1-.28.692.966.966 0 0 1-.691.265Zm16.037 14.039 1.413.765a7.465 7.465 0 0 1-2.546 2.237 6.808 6.808 0 0 1-3.326.839 6.88 6.88 0 0 1-3.709-1.045 7.836 7.836 0 0 1-2.663-2.796c-.657-1.178-.986-2.477-.986-3.9 0-1.08.192-2.085.574-3.017a7.893 7.893 0 0 1 1.575-2.472 7.391 7.391 0 0 1 2.354-1.678 6.873 6.873 0 0 1 2.855-.603c1.197 0 2.306.28 3.326.839a7.404 7.404 0 0 1 2.546 2.251l-1.413.75a5.614 5.614 0 0 0-2.03-1.662c-.796-.393-1.605-.589-2.429-.589a5.246 5.246 0 0 0-2.928.854 6.029 6.029 0 0 0-2.075 2.251c-.51.932-.766 1.958-.766 3.076 0 1.128.26 2.158.78 3.09a6.192 6.192 0 0 0 2.09 2.237c.873.55 1.839.824 2.899.824a5.23 5.23 0 0 0 2.516-.633 6.027 6.027 0 0 0 1.943-1.618Zm9.559 3.738a7.486 7.486 0 0 1-2.399-.427 7.003 7.003 0 0 1-2.03-1.133c-.58-.471-.982-1.006-1.207-1.604l1.397-.604c.167.442.486.84.957 1.192a6.01 6.01 0 0 0 1.619.84 5.782 5.782 0 0 0 1.78.293c.658 0 1.276-.112 1.855-.338.578-.226 1.05-.544 1.413-.957.362-.412.544-.897.544-1.457 0-.588-.191-1.05-.574-1.383-.383-.343-.873-.618-1.472-.824a30.402 30.402 0 0 0-1.824-.603 29.025 29.025 0 0 1-2.811-.957c-.785-.333-1.393-.755-1.825-1.265-.432-.51-.648-1.183-.648-2.016 0-.864.25-1.614.751-2.252.501-.638 1.158-1.128 1.972-1.472a6.511 6.511 0 0 1 2.619-.53c1.207 0 2.301.266 3.282.795.991.53 1.687 1.227 2.09 2.09l-1.295.765a2.918 2.918 0 0 0-.928-1.162 4.784 4.784 0 0 0-1.442-.75 5.54 5.54 0 0 0-1.633-.28 5.203 5.203 0 0 0-1.928.323c-.589.216-1.065.535-1.427.957-.363.412-.545.912-.545 1.5 0 .59.167 1.04.5 1.355.334.314.8.569 1.399.765.598.186 1.29.407 2.074.662.913.285 1.762.604 2.546.957.795.343 1.433.775 1.913 1.295.492.52.732 1.192.722 2.016 0 .863-.26 1.614-.78 2.251-.51.638-1.182 1.129-2.016 1.472a6.465 6.465 0 0 1-2.649.486Z" fill="#fff"></path>
</svg>
